<svg width="16" height="17" viewBox="0 0 16 17" fill="none" xmlns="http://www.w3.org/2000/svg">
<g clip-path="url(#clip0_106_1137)">
<path d="M11.7417 10.8432C12.71 9.52187 13.1437 7.88367 12.956 6.25633C12.7683 4.62899 11.9731 3.13252 10.7294 2.06631C9.48579 1.00011 7.88543 0.442789 6.24851 0.505862C4.6116 0.568935 3.05886 1.24775 1.90095 2.40649C0.743029 3.56524 0.0653277 5.11846 0.00342583 6.75542C-0.058476 8.39238 0.499986 9.99234 1.56708 11.2352C2.63418 12.4781 4.13122 13.2723 5.7587 13.4588C7.38617 13.6453 9.02406 13.2104 10.3447 12.2412H10.3437C10.3737 12.2812 10.4057 12.3192 10.4417 12.3562L14.2917 16.2062C14.4792 16.3938 14.7336 16.4993 14.9988 16.4994C15.2641 16.4995 15.5185 16.3942 15.7062 16.2067C15.8938 16.0192 15.9993 15.7648 15.9994 15.4995C15.9995 15.2343 15.8942 14.9798 15.7067 14.7922L11.8567 10.9422C11.8209 10.906 11.7825 10.8726 11.7417 10.8422V10.8432ZM11.9997 6.99919C11.9997 7.72146 11.8574 8.43665 11.581 9.10394C11.3046 9.77123 10.8995 10.3776 10.3888 10.8883C9.87804 11.399 9.27173 11.8041 8.60444 12.0805C7.93715 12.3569 7.22195 12.4992 6.49968 12.4992C5.77741 12.4992 5.06221 12.3569 4.39492 12.0805C3.72763 11.8041 3.12131 11.399 2.61059 10.8883C2.09987 10.3776 1.69474 9.77123 1.41834 9.10394C1.14194 8.43665 0.999677 7.72146 0.999677 6.99919C0.999677 5.54049 1.57914 4.14155 2.61059 3.1101C3.64204 2.07865 5.04099 1.49919 6.49968 1.49919C7.95837 1.49919 9.35731 2.07865 10.3888 3.1101C11.4202 4.14155 11.9997 5.54049 11.9997 6.99919Z" fill="white"/>
</g>
<defs>
<clipPath id="clip0_106_1137">
<rect width="16" height="16" fill="white" transform="translate(0 0.5)"/>
</clipPath>
</defs>
</svg>
